# xmcd CD database file generated by Grip 3.2.0
# 
# Track frame offsets:
#       150
#       14895
#       41803
#       60463
#       75623
#       97245
#       120968
#       140438
#       171810
#       187370
#       207673
#       232345
#       246768
#       269428
# 
# Disc length: 3917 seconds
# 
# Revision: 2
# Processed by: cddbd v1.5.2PL0 Copyright (c) Steve Scherf et al.
# Submitted via: Grip 3.2.0
# 
DISCID=d90f4b0e
DTITLE=Various Artist - I Love the Blues They Hurt So Good. (SWF-Bluesfestiv
DTITLE=al 1981-1991) [CD 2)
DYEAR=1992
DGENRE=Blues
TTITLE0=Zwingenberger, von Knobelsdorff, Rannenberg Boogie Trio - High-Fly at 
TTITLE0=The Hi-Fi
TTITLE1=International Blues Duo - Blues for Real
TTITLE2=Eddie "Cleanhead" Vinson - Cleanhead's Blues
TTITLE3=Laura Fedele's Singing Sound - Cherry Red
TTITLE4=Laura Fedele's Singing Sound - Love Is the Only Thing
TTITLE5=Margie Evans - Mistreated Woman
TTITLE6=Eddie "Cleanhead" Vinson - Railroad Porter Blues
TTITLE7=Johnny Heartsman and The International Blues Orchestra - Chicken Shack
TTITLE8=Bob Hall and Dave Peabody - Down the Road Apiece
TTITLE9=Paul Geremia - Broke Down Engine
TTITLE10=Vince Weber - He Was A Friend of Mine
TTITLE11=Steve Baker and Detlev Reimers - I'm Thinking of You
TTITLE12=Werner Lämmerhirt and Le Clou - Kokomo Blues
TTITLE13=Willie Kent and Mojo Bluesband - I'm Worried
EXTD=
EXTT0=
EXTT1=
EXTT2=
EXTT3=
EXTT4=
EXTT5=
EXTT6=
EXTT7=
EXTT8=
EXTT9=
EXTT10=
EXTT11=
EXTT12=
EXTT13=
PLAYORDER=
